<?xml version="1.0" encoding="UTF-8" standalone="no"?>
<svg width="284px" height="44px" viewBox="0 0 284 44" version="1.1" xmlns="http://www.w3.org/2000/svg" xmlns:xlink="http://www.w3.org/1999/xlink">
    <!-- Generator: Sketch 41 (35326) - http://www.bohemiancoding.com/sketch -->
    <title>Group 39</title>
    <desc>Created with Sketch.</desc>
    <defs>
        <linearGradient x1="50%" y1="100%" x2="50%" y2="0%" id="linearGradient-1">
            <stop stop-color="#141E2B" offset="0%"></stop>
            <stop stop-color="#063442" offset="98.2959981%"></stop>
        </linearGradient>
        <path d="M43.5394349,33.8415531 C43.5394349,39.3521623 39.1093191,43.8188604 33.6444239,43.8188604 L9.97622836,43.8188604 C4.51151307,43.8188604 0.0810373551,39.3521623 0.0810373551,33.8415531 L0.0810373551,9.97712589 C0.0810373551,4.46706106 4.51151307,0 9.97622836,0 L33.6444239,0 C39.1093191,0 43.5394349,4.46706106 43.5394349,9.97712589 L43.5394349,33.8415531 Z" id="path-2"></path>
        <linearGradient x1="52.7519286%" y1="117.509341%" x2="52.7519307%" y2="72.5403042%" id="linearGradient-4">
            <stop stop-color="#00FAFF" offset="0%"></stop>
            <stop stop-color="#063442" offset="100%"></stop>
        </linearGradient>
        <filter x="-50%" y="-50%" width="200%" height="200%" filterUnits="objectBoundingBox" id="filter-5">
            <feGaussianBlur stdDeviation="0.448357593" in="SourceGraphic"></feGaussianBlur>
        </filter>
        <filter x="-50%" y="-50%" width="200%" height="200%" filterUnits="objectBoundingBox" id="filter-6">
            <feGaussianBlur stdDeviation="2.0199375" in="SourceGraphic"></feGaussianBlur>
        </filter>
        <polygon id="path-7" points="2.55291791e-20 0.228293525 2.55291791e-20 16.7561496 9.92833953 16.7561496 9.92833953 0.228293525 0 0.228293525"></polygon>
    </defs>
    <g id="Page-1" stroke="none" stroke-width="1" fill="none" fill-rule="evenodd">
        <g id="Desktop-HD-Copy" transform="translate(-129.000000, -218.000000)">
            <g id="Group-39" transform="translate(129.000000, 218.000000)">
                <g id="Group-18" transform="translate(54.000000, 5.000000)" fill="#EEFCFF">
                    <g id="Group-17">
                        <g id="Page-1" transform="translate(0.038055, 0.945946)">
                            <path d="M16.3641641,19.143627 L12.5496778,8.0698973 L12.4229886,8.0698973 L8.56647273,19.143627 L16.3641641,19.143627 Z M10.0495171,1.40032973 C10.1341767,1.14822162 10.3040964,0.980545946 10.6001049,0.980545946 L14.4992507,0.980545946 C14.7958596,0.980545946 14.9651789,1.14822162 15.0504389,1.40032973 L24.7977032,29.0852486 C24.8823628,29.3367622 24.7977032,29.5044378 24.5010943,29.5044378 L20.3479696,29.5044378 C20.0507603,29.5044378 19.881441,29.3789784 19.7967814,29.0852486 L17.8898385,23.5477892 L7.04079831,23.5477892 L5.13325497,29.0852486 C5.04919577,29.3789784 4.87927611,29.5044378 4.58266723,29.5044378 L0.471572093,29.5044378 C0.174963214,29.5044378 0.0903035941,29.3367622 0.174963214,29.0852486 L10.0495171,1.40032973 Z" id="Fill-1"></path>
                            <path d="M39.3568161,29.5046162 C39.1022368,29.5046162 38.9329175,29.3369405 38.9329175,29.0848324 L38.9329175,27.6167784 L38.8908879,27.6167784 C37.7885116,29.0015892 36.1781776,29.9660216 33.5927569,29.9660216 C29.2282833,29.9660216 26.558203,26.7784 26.558203,22.4574811 L26.558203,9.70521081 C26.558203,9.4536973 26.7275222,9.28602162 26.9821015,9.28602162 L30.8806469,9.28602162 C31.1346258,9.28602162 31.3045455,9.4536973 31.3045455,9.70521081 L31.3045455,21.3664 C31.3045455,23.9677514 32.533611,25.7711568 35.1184313,25.7711568 C37.5345328,25.7711568 38.9329175,23.9677514 38.9329175,21.4086162 L38.9329175,9.70521081 C38.9329175,9.4536973 39.1022368,9.28602162 39.3568161,9.28602162 L43.2553615,9.28602162 C43.5099408,9.28602162 43.67926,9.4536973 43.67926,9.70521081 L43.67926,29.0848324 C43.67926,29.3369405 43.5099408,29.5046162 43.2553615,29.5046162 L39.3568161,29.5046162 Z" id="Fill-6"></path>
                            <path d="M54.2547476,29.7563676 C50.1442529,29.7563676 48.5759484,27.7846919 48.5759484,23.8419351 L48.5759484,13.1873946 C48.5759484,13.0191243 48.4912888,12.9352865 48.3213691,12.9352865 L46.9656144,12.9352865 C46.7110351,12.9352865 46.5417159,12.7676108 46.5417159,12.5160973 L46.5417159,9.70544865 C46.5417159,9.45393514 46.7110351,9.28625946 46.9656144,9.28625946 L48.3213691,9.28625946 C48.4912888,9.28625946 48.5759484,9.20182703 48.5759484,9.03474595 L48.5759484,3.49728649 C48.5759484,3.24577297 48.7458681,3.0780973 48.9998469,3.0780973 L52.8983924,3.0780973 C53.1529717,3.0780973 53.3222909,3.24577297 53.3222909,3.49728649 L53.3222909,9.03474595 C53.3222909,9.20182703 53.407551,9.28625946 53.5768702,9.28625946 L56.2889801,9.28625946 C56.542959,9.28625946 56.7128786,9.45393514 56.7128786,9.70544865 L56.7128786,12.5160973 C56.7128786,12.7676108 56.542959,12.9352865 56.2889801,12.9352865 L53.5768702,12.9352865 C53.407551,12.9352865 53.3222909,13.0191243 53.3222909,13.1873946 L53.3222909,23.6736649 C53.3222909,25.1000973 53.9155087,25.5615027 55.2298342,25.5615027 L56.2889801,25.5615027 C56.542959,25.5615027 56.7128786,25.7291784 56.7128786,25.9806919 L56.7128786,29.3365838 C56.7128786,29.5886919 56.542959,29.7563676 56.2889801,29.7563676 L54.2547476,29.7563676 Z" id="Fill-11"></path>
                            <path d="M72.1197285,23.1285405 C72.4589674,22.0802703 72.5436271,21.1152432 72.5436271,19.3950811 C72.5436271,17.6755135 72.4589674,16.7527027 72.1197285,15.6622162 C71.5265108,13.9842703 70.2127856,13.0198378 68.3052423,13.0198378 C66.3982994,13.0198378 65.0425446,13.9842703 64.4493268,15.6622162 C64.1100879,16.7527027 64.0254283,17.6755135 64.0254283,19.3950811 C64.0254283,21.1152432 64.1100879,22.0802703 64.4493268,23.1285405 C65.0425446,24.8064865 66.3982994,25.7709189 68.3052423,25.7709189 C70.2127856,25.7709189 71.5265108,24.8064865 72.1197285,23.1285405 M59.8717032,24.3872973 C59.4057751,22.9608649 59.1938258,21.6188649 59.1938258,19.3950811 C59.1938258,17.1718919 59.4057751,15.8298919 59.8717032,14.4034595 C61.0167095,10.8798919 64.1521175,8.82437838 68.3052423,8.82437838 C72.4163374,8.82437838 75.5523459,10.8798919 76.6967518,14.4034595 C77.1626799,15.8298919 77.3746292,17.1718919 77.3746292,19.3950811 C77.3746292,21.6188649 77.1626799,22.9608649 76.6967518,24.3872973 C75.5523459,27.9102703 72.4163374,29.9657838 68.3052423,29.9657838 C64.1521175,29.9657838 61.0167095,27.9102703 59.8717032,24.3872973" id="Fill-16"></path>
                            <path d="M80.5408989,15.2424324 C80.5408989,10.7122162 80.7102182,9.28578378 81.3040364,7.52459459 C82.7870808,2.86832432 86.4316474,0.519081081 91.3052795,0.519081081 C95.9249328,0.519081081 99.4001801,2.86832432 101.052544,6.64340541 C101.137203,6.8532973 101.052544,7.06318919 100.840595,7.14702703 L97.2386579,8.86659459 C96.9840786,8.99264865 96.7721294,8.86659459 96.6874698,8.6567027 C95.7556135,6.64340541 94.1446791,4.96545946 91.3052795,4.96545946 C88.5505395,4.96545946 86.9402055,6.43351351 86.1350385,8.74054054 C85.75377,9.91545946 85.6258799,11.0475676 85.6258799,15.2424324 C85.6258799,19.4372973 85.75377,20.57 86.1350385,21.7443243 C86.9402055,24.0513514 88.5505395,25.52 91.3052795,25.52 C94.1446791,25.52 95.7556135,23.8420541 96.6874698,21.8281622 C96.7721294,21.6182703 96.9840786,21.4928108 97.2386579,21.6182703 L100.840595,23.3384324 C101.052544,23.4222703 101.137203,23.6321622 101.052544,23.8420541 C99.4001801,27.6171351 95.9249328,29.9657838 91.3052795,29.9657838 C86.4316474,29.9657838 82.7870808,27.6171351 81.3040364,22.9608649 C80.7102182,21.1990811 80.5408989,19.7732432 80.5408989,15.2424324" id="Fill-21"></path>
                            <path d="M116.833097,29.5046162 C116.579118,29.5046162 116.409198,29.3369405 116.409198,29.0848324 L116.409198,17.4242378 C116.409198,14.8234811 115.095473,13.0194811 112.552682,13.0194811 C110.094551,13.0194811 108.654137,14.8234811 108.654137,17.4242378 L108.654137,29.0848324 C108.654137,29.3369405 108.484217,29.5046162 108.230238,29.5046162 L104.331693,29.5046162 C104.077114,29.5046162 103.907795,29.3369405 103.907795,29.0848324 L103.907795,1.40050811 C103.907795,1.1484 104.077114,0.980724324 104.331693,0.980724324 L108.230238,0.980724324 C108.484217,0.980724324 108.654137,1.1484 108.654137,1.40050811 L108.654137,11.1738595 L108.696167,11.1738595 C109.586594,9.9151027 111.366847,8.82521081 114.078957,8.82521081 C118.443431,8.82521081 121.156141,12.0128324 121.156141,16.3331568 L121.156141,29.0848324 C121.156141,29.3369405 120.986222,29.5046162 120.731642,29.5046162 L116.833097,29.5046162 Z" id="Fill-26"></path>
                            <path d="M125.578375,29.5046162 C125.323796,29.5046162 125.154477,29.3369405 125.154477,29.0848324 L125.154477,9.70521081 C125.154477,9.4536973 125.323796,9.28602162 125.578375,9.28602162 L129.476921,9.28602162 C129.7315,9.28602162 129.900819,9.4536973 129.900819,9.70521081 L129.900819,29.0848324 C129.900819,29.3369405 129.7315,29.5046162 129.476921,29.5046162 L125.578375,29.5046162 Z M125.578375,5.46872432 C125.323796,5.46872432 125.154477,5.30104865 125.154477,5.04953514 L125.154477,1.40050811 C125.154477,1.1484 125.323796,0.980724324 125.578375,0.980724324 L129.476921,0.980724324 C129.7315,0.980724324 129.900819,1.1484 129.900819,1.40050811 L129.900819,5.04953514 C129.900819,5.30104865 129.7315,5.46872432 129.476921,5.46872432 L125.578375,5.46872432 Z" id="Fill-31"></path>
                            <path d="M139.342348,29.7563676 C135.358543,29.7563676 133.747608,27.8685297 133.747608,23.9673946 L133.747608,1.40015135 C133.747608,1.14863784 133.917528,0.980962162 134.171507,0.980962162 L138.070653,0.980962162 C138.325232,0.980962162 138.494551,1.14863784 138.494551,1.40015135 L138.494551,23.7158811 C138.494551,25.1000973 139.04574,25.5615027 140.274805,25.5615027 L141.206661,25.5615027 C141.461241,25.5615027 141.63056,25.7291784 141.63056,25.9806919 L141.63056,29.3365838 C141.63056,29.5886919 141.461241,29.7563676 141.206661,29.7563676 L139.342348,29.7563676 Z" id="Fill-36"></path>
                            <path d="M156.400962,22.7089946 L156.400962,21.1571027 C156.400962,20.989427 156.316302,20.9055892 156.146382,20.9055892 L152.756395,20.9055892 C149.705046,20.9055892 148.348691,21.7439676 148.348691,23.6324 C148.348691,25.3103459 149.577756,26.1487243 151.865968,26.1487243 C154.790627,26.1487243 156.400962,25.0160216 156.400962,22.7089946 L156.400962,22.7089946 Z M156.90952,29.5046162 C156.655541,29.5046162 156.485621,29.3369405 156.485621,29.0848324 L156.485621,27.6167784 L156.443592,27.6167784 C155.468505,29.0015892 153.561562,29.9660216 150.679532,29.9660216 C146.950306,29.9660216 143.814298,28.0365622 143.814298,23.7994811 C143.814298,19.3953189 146.950306,17.3820216 151.993858,17.3820216 L156.146382,17.3820216 C156.316302,17.3820216 156.400962,17.2981838 156.400962,17.1305081 L156.400962,16.1654811 C156.400962,13.8584541 155.299186,12.8095892 151.865968,12.8095892 C149.577756,12.8095892 148.178771,13.4386703 147.204285,14.1938054 C146.992336,14.3614811 146.738357,14.3198595 146.611067,14.1099676 L145.043363,11.3415351 C144.916074,11.1316432 144.958103,10.9223459 145.128023,10.7962919 C146.780987,9.62196757 149.026568,8.82461622 152.375126,8.82461622 C158.604513,8.82461622 160.893325,10.9223459 160.893325,15.8717514 L160.893325,29.0848324 C160.893325,29.3369405 160.723405,29.5046162 160.469427,29.5046162 L156.90952,29.5046162 Z" id="Fill-41"></path>
                            <path d="M177.3018,29.5046162 C177.047822,29.5046162 176.878502,29.3369405 176.878502,29.0848324 L176.878502,17.4242378 C176.878502,14.8234811 175.564177,13.0194811 173.021386,13.0194811 C170.563255,13.0194811 169.122841,14.8234811 169.122841,17.4242378 L169.122841,29.0848324 C169.122841,29.3369405 168.952921,29.5046162 168.698942,29.5046162 L164.800397,29.5046162 C164.545817,29.5046162 164.376498,29.3369405 164.376498,29.0848324 L164.376498,9.70521081 C164.376498,9.4536973 164.545817,9.28602162 164.800397,9.28602162 L168.698942,9.28602162 C168.952921,9.28602162 169.122841,9.4536973 169.122841,9.70521081 L169.122841,11.1738595 L169.16487,11.1738595 C170.055297,9.9151027 171.834951,8.82521081 174.547661,8.82521081 C178.912134,8.82521081 181.624244,12.0128324 181.624244,16.3331568 L181.624244,29.0848324 C181.624244,29.3369405 181.454925,29.5046162 181.200346,29.5046162 L177.3018,29.5046162 Z" id="Fill-46"></path>
                            <path d="M196.938749,22.2057892 C197.277988,21.2829784 197.404677,20.2763297 197.404677,18.8915189 C197.404677,17.5495189 197.277988,16.5428703 196.938749,15.5784378 C196.387561,13.9421135 195.243155,13.0193027 193.293582,13.0193027 C191.386639,13.0193027 190.242834,13.9421135 189.691646,15.5784378 C189.352407,16.5428703 189.225117,17.5495189 189.225117,18.8915189 C189.225117,20.2763297 189.352407,21.2829784 189.691646,22.2057892 C190.242834,23.8837351 191.386639,24.8065459 193.293582,24.8065459 C195.243155,24.8065459 196.387561,23.8837351 196.938749,22.2057892 M185.199282,34.4960595 C185.029963,34.2861676 185.029963,34.1190865 185.241912,33.9091946 L187.742073,31.4338973 C187.954022,31.2246 188.165971,31.2246 188.377921,31.4338973 C189.649016,32.6510324 191.13266,33.3217351 192.828255,33.3217351 C195.963663,33.3217351 197.404677,31.6437892 197.404677,28.4977892 L197.404677,26.6099514 L197.362047,26.6099514 C196.430191,28.0363838 194.692567,28.9591946 192.065117,28.9591946 C188.631899,28.9591946 186.174369,27.239627 185.114622,24.0514108 C184.606064,22.4995189 184.436745,21.1153027 184.436745,18.8915189 C184.436745,16.6689243 184.606064,15.3263297 185.114622,13.7744378 C186.174369,10.5446 188.631899,8.82443784 192.065117,8.82443784 C194.692567,8.82443784 196.430191,9.74724865 197.362047,11.2153027 L197.404677,11.2153027 L197.404677,9.70562703 C197.404677,9.45411351 197.573997,9.28584324 197.828576,9.28584324 L201.727722,9.28584324 C201.981701,9.28584324 202.15162,9.45411351 202.15162,9.70562703 L202.15162,28.2462757 C202.15162,34.0346541 198.888322,37.5166 192.616305,37.5166 C189.776305,37.5166 186.767586,36.3416811 185.199282,34.4960595" id="Fill-51"></path>
                            <path d="M218.316204,23.1285405 C218.655443,22.0802703 218.740102,21.1152432 218.740102,19.3950811 C218.740102,17.6755135 218.655443,16.7527027 218.316204,15.6622162 C217.722986,13.9842703 216.409261,13.0198378 214.502318,13.0198378 C212.594775,13.0198378 211.23902,13.9842703 210.645802,15.6622162 C210.305963,16.7527027 210.221904,17.6755135 210.221904,19.3950811 C210.221904,21.1152432 210.305963,22.0802703 210.645802,23.1285405 C211.23902,24.8064865 212.594775,25.7709189 214.502318,25.7709189 C216.409261,25.7709189 217.722986,24.8064865 218.316204,23.1285405 M206.068178,24.3872973 C205.602851,22.9608649 205.390901,21.6188649 205.390901,19.3950811 C205.390901,17.1718919 205.602851,15.8298919 206.068178,14.4034595 C207.212584,10.8798919 210.348593,8.82437838 214.502318,8.82437838 C218.612813,8.82437838 221.748821,10.8798919 222.893227,14.4034595 C223.359155,15.8298919 223.571104,17.1718919 223.571104,19.3950811 C223.571104,21.6188649 223.359155,22.9608649 222.893227,24.3872973 C221.748821,27.9102703 218.612813,29.9657838 214.502318,29.9657838 C210.348593,29.9657838 207.212584,27.9102703 206.068178,24.3872973" id="Fill-56"></path>
                            <path d="M226.961452,3.84607568 C226.961452,3.57850811 226.775921,3.44472432 226.421071,3.44472432 L225.779219,3.44472432 C225.728784,3.44472432 225.711972,3.46137297 225.711972,3.51191351 L225.711972,4.18023784 C225.711972,4.23077838 225.728784,4.24742703 225.779219,4.24742703 L226.421071,4.24742703 C226.775921,4.24742703 226.961452,4.13029189 226.961452,3.84607568 L226.961452,3.84607568 Z M225.019084,6.30294054 C224.951837,6.30294054 224.900801,6.26964324 224.900801,6.1864 L224.900801,2.87688649 C224.900801,2.79304865 224.951837,2.75975135 225.019084,2.75975135 L226.421071,2.75975135 C227.248454,2.75975135 227.737799,3.14385946 227.737799,3.84607568 C227.737799,4.34731892 227.48442,4.68207568 227.062323,4.84856216 L227.771422,6.1864 C227.805647,6.25299459 227.771422,6.30294054 227.687964,6.30294054 L227.079135,6.30294054 C227.011888,6.30294054 226.961452,6.26964324 226.927828,6.1864 L226.268564,4.94964324 L225.779219,4.94964324 C225.728784,4.94964324 225.711972,4.98294054 225.711972,5.01623784 L225.711972,6.1864 C225.711972,6.26964324 225.660936,6.30294054 225.593689,6.30294054 L225.019084,6.30294054 Z M228.768124,4.54829189 C228.768124,3.09391351 227.670551,2.00758919 226.235541,2.00758919 C224.79993,2.00758919 223.702357,3.09391351 223.702357,4.54829189 C223.702357,6.01872432 224.79993,7.10564324 226.235541,7.10564324 C227.670551,7.10564324 228.768124,6.01872432 228.768124,4.54829189 L228.768124,4.54829189 Z M223.010069,4.54829189 C223.010069,2.75975135 224.411456,1.35591351 226.235541,1.35591351 C228.059025,1.35591351 229.460412,2.75975135 229.460412,4.54829189 C229.460412,6.35288649 228.059025,7.75672432 226.235541,7.75672432 C224.411456,7.75672432 223.010069,6.35288649 223.010069,4.54829189 L223.010069,4.54829189 Z" id="Fill-61"></path>
                        </g>
                    </g>
                </g>
                <g id="Group-38">
                    <g id="Group-22">
                        <g id="fondo-copy">
                            <g id="Group-4" transform="translate(0.046647, 0.000000)">
                                <mask id="mask-3" fill="white">
                                    <use xlink:href="#path-2"></use>
                                </mask>
                                <use id="Fill-1" fill="url(#linearGradient-1)" xlink:href="#path-2"></use>
                                <g id="Group-3" mask="url(#mask-3)" fill="url(#linearGradient-4)" opacity="0.604506341">
                                    <g transform="translate(-0.464058, -3.783602)" id="Rectangle-15">
                                        <rect filter="url(#filter-5)" transform="translate(22.488606, 23.994706) scale(-1, 1) translate(-22.488606, -23.994706) " x="-1.91846539e-13" y="0" width="44.977211" height="47.9894127"></rect>
                                    </g>
                                </g>
                            </g>
                        </g>
                        <path d="M25.5208708,8.23021583 C31.264141,9.86061175 35.4767442,15.2094505 35.4767442,21.5570398 C35.4767442,22.6635066 35.3479112,23.7392955 35.1061379,24.77067 C34.4980415,24.248229 33.9070778,23.6993454 33.3371917,23.1210431 C29.2694271,18.9939425 26.5861384,13.8370699 25.5208708,8.23021583 Z M18.1186641,8.23021583 C12.3753939,9.86061175 8.1627907,15.2094505 8.1627907,21.5570398 C8.1627907,22.6635066 8.29162372,23.7392955 8.53339698,24.77067 C9.14149336,24.248229 9.73245708,23.6993454 10.3023431,23.1210431 C14.3701078,18.9939425 17.0533964,13.8370699 18.1186641,8.23021583 Z M12.1078089,31.3948188 C14.5762632,33.9021692 17.9880276,35.4532374 21.7569853,35.4532374 C25.5258303,35.4532374 28.9375947,33.9021692 31.406049,31.3948188 C28.3143946,30.4632621 25.0724913,29.9795119 21.7569853,29.9795119 C18.4413666,29.9795119 15.1994633,30.4632621 12.1078089,31.3948188 Z M21.8012822,19.3338038 C20.5562345,19.3338038 19.5469861,20.3578523 19.5469861,21.6210285 C19.5469861,22.8842047 20.5562345,23.9082532 21.8012822,23.9082532 C23.04633,23.9082532 24.0555783,22.8842047 24.0555783,21.6210285 C24.0555783,20.3578523 23.04633,19.3338038 21.8012822,19.3338038 Z" id="Combined-Shape" fill-opacity="0.5" fill="#01E4E5" filter="url(#filter-6)"></path>
                    </g>
                    <g id="Page-1" transform="translate(8.162791, 7.913669)">
                        <g id="Group-3" transform="translate(0.000000, 0.088253)">
                            <mask id="mask-8" fill="white">
                                <use xlink:href="#path-7"></use>
                            </mask>
                            <g id="Clip-2"></g>
                            <path d="M9.92833953,0.228293525 C4.20088605,1.85755971 -0.000125581395,7.20213525 -0.000125581395,13.5447827 C-0.000125581395,14.6504806 0.128595349,15.7254734 0.369711628,16.7561496 C0.975955814,16.234164 1.56524651,15.6855885 2.13350233,15.1078906 C6.19009535,10.9839194 8.86592093,5.83085468 9.92833953,0.228293525" id="Fill-1" fill="#FFFFFF" mask="url(#mask-8)"></path>
                        </g>
                        <path d="M17.2674419,0.316546763 C22.9948953,1.94581295 27.195907,7.29038849 27.195907,13.633036 C27.195907,14.7387338 27.067186,15.8137266 26.8260698,16.8444029 C26.2198256,16.3224173 25.6305349,15.7738417 25.0622791,15.1961439 C21.005686,11.0721727 18.3298605,5.91910791 17.2674419,0.316546763" id="Fill-4" fill="#FFFFFF"></path>
                        <path d="M3.97546744,23.5725094 C6.43717674,26.077977 9.8394907,27.6277899 13.5978279,27.6277899 C17.3564791,27.6277899 20.758793,26.077977 23.2201884,23.5725094 C20.1371651,22.6415453 16.904386,22.1581784 13.5978279,22.1581784 C10.2915837,22.1581784 7.0584907,22.6415453 3.97546744,23.5725094" id="Fill-6" fill="#FFFFFF"></path>
                        <path d="M13.5978907,11.6867165 C12.3562047,11.6867165 11.3499837,12.7101122 11.3499837,13.9721842 C11.3499837,15.2342561 12.3562047,16.2576518 13.5978907,16.2576518 C14.8395767,16.2576518 15.8457977,15.2342561 15.8457977,13.9721842 C15.8457977,12.7101122 14.8395767,11.6867165 13.5978907,11.6867165" id="Fill-8" fill="#FFFFFF"></path>
                    </g>
                </g>
            </g>
        </g>
    </g>
</svg>